<svg width="17" height="18" viewBox="0 0 17 18" fill="none" xmlns="http://www.w3.org/2000/svg">
<path d="M4.15833 14.4048H12.475V15.9642H4.15833V14.4048Z" fill="#6F7C8B" fill-opacity="0.5"/>
<path d="M8.31617 10.246C8.89119 10.246 9.35576 9.78139 9.35576 9.20637C9.35576 8.63135 8.89119 8.16679 8.31617 8.16679C8.21871 8.16679 8.12125 8.17978 8.03029 8.20577L5.86341 6.62366L5.73346 6.73736L7.32207 8.90424C7.29283 8.99846 7.27659 9.09916 7.27659 9.20637C7.27659 9.78139 7.74115 10.246 8.31617 10.246Z" fill="#6F7C8B" fill-opacity="0.5"/>
<path d="M8.31668 2.44958C4.58393 2.44958 1.55939 5.47412 1.55939 9.20688C1.55939 10.776 2.09542 12.2184 2.99206 13.3652H4.9023L5.03225 13.2353L5.75021 12.5173L5.00626 11.7733L4.28829 12.4881C3.6418 11.6986 3.24546 10.7338 3.14475 9.72667H4.15835V8.68709H3.14475C3.24546 7.67999 3.6418 6.71513 4.28829 5.92569L5.00626 6.64041L5.75021 5.89645L5.03549 5.17849C5.82493 4.532 6.78979 4.13566 7.79689 4.03495V5.04854H8.83647V4.03495C9.84357 4.13566 10.8084 4.532 11.5979 5.17849L10.8832 5.89645L11.6271 6.64041L12.3451 5.92569C12.9916 6.71513 13.3879 7.67999 13.4886 8.68709H12.475V9.72667H13.4886C13.3879 10.7338 12.9916 11.6986 12.3451 12.4881L11.6271 11.7733L10.8832 12.5173L11.6011 13.2353L11.7311 13.3652H13.6413C14.5379 12.2184 15.074 10.776 15.074 9.20688C15.074 5.47412 12.0494 2.44958 8.31668 2.44958Z" fill="#6F7C8B" fill-opacity="0.5"/>
</svg>
